<mxfile host="Electron" agent="Mozilla/5.0 (Macintosh; Intel Mac OS X 10_15_7) AppleWebKit/537.36 (KHTML, like Gecko) draw.io/28.0.6 Chrome/138.0.7204.100 Electron/37.2.3 Safari/537.36" version="28.0.6">
  <diagram name="Page-1" id="nY29fUh74YWCAdBD4fMV">
    <mxGraphModel dx="119" dy="766" grid="1" gridSize="10" guides="1" tooltips="1" connect="1" arrows="1" fold="1" page="1" pageScale="1" pageWidth="827" pageHeight="1169" math="0" shadow="0">
      <root>
        <mxCell id="0" />
        <mxCell id="1" parent="0" />
        <mxCell id="Y6F_x6J40FtZmeI-tIzV-29" value="" style="edgeStyle=orthogonalEdgeStyle;rounded=0;orthogonalLoop=1;jettySize=auto;html=1;fontColor=#000000;labelBackgroundColor=none;" parent="1" source="Y6F_x6J40FtZmeI-tIzV-30" target="Y6F_x6J40FtZmeI-tIzV-33" edge="1">
          <mxGeometry relative="1" as="geometry" />
        </mxCell>
        <mxCell id="Y6F_x6J40FtZmeI-tIzV-30" value="Start Simulation" style="rounded=1;whiteSpace=wrap;html=1;fontColor=#000000;labelBackgroundColor=none;" parent="1" vertex="1">
          <mxGeometry x="1220" y="730" width="120" height="60" as="geometry" />
        </mxCell>
        <mxCell id="Y6F_x6J40FtZmeI-tIzV-31" style="edgeStyle=orthogonalEdgeStyle;rounded=0;orthogonalLoop=1;jettySize=auto;html=1;entryX=0.5;entryY=0;entryDx=0;entryDy=0;fontColor=#000000;labelBackgroundColor=none;" parent="1" source="Y6F_x6J40FtZmeI-tIzV-33" target="Y6F_x6J40FtZmeI-tIzV-35" edge="1">
          <mxGeometry relative="1" as="geometry" />
        </mxCell>
        <mxCell id="Y6F_x6J40FtZmeI-tIzV-32" style="edgeStyle=orthogonalEdgeStyle;rounded=0;orthogonalLoop=1;jettySize=auto;html=1;fontColor=#000000;labelBackgroundColor=none;" parent="1" source="Y6F_x6J40FtZmeI-tIzV-33" target="Y6F_x6J40FtZmeI-tIzV-37" edge="1">
          <mxGeometry relative="1" as="geometry" />
        </mxCell>
        <mxCell id="Y6F_x6J40FtZmeI-tIzV-33" value="Agent Type" style="rhombus;whiteSpace=wrap;html=1;fontColor=#000000;labelBackgroundColor=none;" parent="1" vertex="1">
          <mxGeometry x="1240" y="880" width="80" height="80" as="geometry" />
        </mxCell>
        <mxCell id="Y6F_x6J40FtZmeI-tIzV-34" style="edgeStyle=orthogonalEdgeStyle;rounded=0;orthogonalLoop=1;jettySize=auto;html=1;fontColor=#000000;labelBackgroundColor=none;" parent="1" source="Y6F_x6J40FtZmeI-tIzV-35" target="Y6F_x6J40FtZmeI-tIzV-39" edge="1">
          <mxGeometry relative="1" as="geometry" />
        </mxCell>
        <mxCell id="Y6F_x6J40FtZmeI-tIzV-35" value="&lt;font&gt;Recieves Data on Local state. Ex: Where the neighbouring cell is or if there is a Pheromone dropped&lt;/font&gt;" style="rounded=1;whiteSpace=wrap;html=1;fontColor=#000000;labelBackgroundColor=none;" parent="1" vertex="1">
          <mxGeometry x="890" y="1010" width="210" height="90" as="geometry" />
        </mxCell>
        <mxCell id="Y6F_x6J40FtZmeI-tIzV-36" style="edgeStyle=orthogonalEdgeStyle;rounded=0;orthogonalLoop=1;jettySize=auto;html=1;entryX=0.5;entryY=0;entryDx=0;entryDy=0;fontColor=#000000;labelBackgroundColor=none;" parent="1" source="Y6F_x6J40FtZmeI-tIzV-37" target="Y6F_x6J40FtZmeI-tIzV-41" edge="1">
          <mxGeometry relative="1" as="geometry" />
        </mxCell>
        <mxCell id="Y6F_x6J40FtZmeI-tIzV-37" value="&lt;font&gt;Worker ants receive similar information as their counter parts here but the Queen agent has a broader perspective on position of worker ants.&amp;nbsp;&lt;/font&gt;" style="rounded=1;whiteSpace=wrap;html=1;fontColor=#000000;labelBackgroundColor=none;" parent="1" vertex="1">
          <mxGeometry x="1500" y="1010" width="200" height="90" as="geometry" />
        </mxCell>
        <mxCell id="Y6F_x6J40FtZmeI-tIzV-38" style="edgeStyle=orthogonalEdgeStyle;rounded=0;orthogonalLoop=1;jettySize=auto;html=1;entryX=0.5;entryY=0;entryDx=0;entryDy=0;fontColor=#000000;labelBackgroundColor=none;" parent="1" source="Y6F_x6J40FtZmeI-tIzV-39" target="Y6F_x6J40FtZmeI-tIzV-44" edge="1">
          <mxGeometry relative="1" as="geometry" />
        </mxCell>
        <mxCell id="Y6F_x6J40FtZmeI-tIzV-39" value="Action taken based on pre-defined instructions such as collect Food, stay away from Predators or send an Alert to other worker ants for Food/Predator" style="rounded=1;whiteSpace=wrap;html=1;fontColor=#000000;labelBackgroundColor=none;" parent="1" vertex="1">
          <mxGeometry x="890" y="1190" width="210" height="90" as="geometry" />
        </mxCell>
        <mxCell id="Y6F_x6J40FtZmeI-tIzV-40" style="edgeStyle=orthogonalEdgeStyle;rounded=0;orthogonalLoop=1;jettySize=auto;html=1;fontColor=#000000;labelBackgroundColor=none;" parent="1" source="Y6F_x6J40FtZmeI-tIzV-41" target="Y6F_x6J40FtZmeI-tIzV-46" edge="1">
          <mxGeometry relative="1" as="geometry" />
        </mxCell>
        <mxCell id="Y6F_x6J40FtZmeI-tIzV-41" value="&lt;span style=&quot;font-family: Helvetica; font-size: 12px; font-style: normal; font-variant-ligatures: normal; font-variant-caps: normal; font-weight: 400; letter-spacing: normal; orphans: 2; text-align: center; text-indent: 0px; text-transform: none; widows: 2; word-spacing: 0px; -webkit-text-stroke-width: 0px; white-space: normal; text-decoration-thickness: initial; text-decoration-style: initial; text-decoration-color: initial; float: none; display: inline !important;&quot;&gt;Action taken based on pre-defined instructions and Queen LLMs inputs or send an Alert to other worker ants for Food/Predator&lt;/span&gt;" style="rounded=1;whiteSpace=wrap;html=1;fontColor=#000000;labelBackgroundColor=none;" parent="1" vertex="1">
          <mxGeometry x="1500" y="1190" width="200" height="90" as="geometry" />
        </mxCell>
        <mxCell id="Y6F_x6J40FtZmeI-tIzV-42" value="" style="edgeStyle=orthogonalEdgeStyle;rounded=0;orthogonalLoop=1;jettySize=auto;html=1;fontColor=#000000;labelBackgroundColor=none;" parent="1" source="Y6F_x6J40FtZmeI-tIzV-44" target="Y6F_x6J40FtZmeI-tIzV-54" edge="1">
          <mxGeometry relative="1" as="geometry">
            <Array as="points">
              <mxPoint x="970" y="1365" />
              <mxPoint x="970" y="1365" />
            </Array>
          </mxGeometry>
        </mxCell>
        <mxCell id="Y6F_x6J40FtZmeI-tIzV-43" style="edgeStyle=orthogonalEdgeStyle;rounded=0;orthogonalLoop=1;jettySize=auto;html=1;entryX=0.5;entryY=0;entryDx=0;entryDy=0;fontColor=#000000;labelBackgroundColor=none;" parent="1" source="Y6F_x6J40FtZmeI-tIzV-44" target="Y6F_x6J40FtZmeI-tIzV-51" edge="1">
          <mxGeometry relative="1" as="geometry" />
        </mxCell>
        <mxCell id="Y6F_x6J40FtZmeI-tIzV-44" value="Updating the Pheromone Grid with Pheromones like: Trail, Alarm, Recruit, Decay" style="rounded=1;whiteSpace=wrap;html=1;fontColor=#000000;labelBackgroundColor=none;" parent="1" vertex="1">
          <mxGeometry x="890" y="1322.5" width="210" height="90" as="geometry" />
        </mxCell>
        <mxCell id="Y6F_x6J40FtZmeI-tIzV-64" style="edgeStyle=orthogonalEdgeStyle;rounded=0;orthogonalLoop=1;jettySize=auto;html=1;fontColor=#000000;labelBackgroundColor=none;" parent="1" source="Y6F_x6J40FtZmeI-tIzV-46" target="Y6F_x6J40FtZmeI-tIzV-54" edge="1">
          <mxGeometry relative="1" as="geometry" />
        </mxCell>
        <mxCell id="Y6F_x6J40FtZmeI-tIzV-46" value="Record the action taken by the ant and store it as a transaction on the Public Ledger of Ethereum Sepolia Testnet" style="rounded=1;whiteSpace=wrap;html=1;fontColor=#000000;labelBackgroundColor=none;" parent="1" vertex="1">
          <mxGeometry x="1500" y="1322.5" width="200" height="90" as="geometry" />
        </mxCell>
        <mxCell id="Y6F_x6J40FtZmeI-tIzV-47" style="edgeStyle=orthogonalEdgeStyle;rounded=0;orthogonalLoop=1;jettySize=auto;html=1;exitX=0.5;exitY=1;exitDx=0;exitDy=0;entryX=1;entryY=0.5;entryDx=0;entryDy=0;fontColor=#000000;labelBackgroundColor=none;" parent="1" source="Y6F_x6J40FtZmeI-tIzV-48" target="Y6F_x6J40FtZmeI-tIzV-58" edge="1">
          <mxGeometry relative="1" as="geometry" />
        </mxCell>
        <mxCell id="Y6F_x6J40FtZmeI-tIzV-48" value="Analyzing Metrics: Foraging Efficiency, API calls used, Performance comparison with and without ants, Costs for the API calls.&amp;nbsp;" style="rounded=0;whiteSpace=wrap;html=1;fontColor=#000000;labelBackgroundColor=none;" parent="1" vertex="1">
          <mxGeometry x="1490" y="1550" width="256" height="130" as="geometry" />
        </mxCell>
        <mxCell id="Y6F_x6J40FtZmeI-tIzV-49" style="edgeStyle=orthogonalEdgeStyle;rounded=0;orthogonalLoop=1;jettySize=auto;html=1;entryX=0;entryY=0.5;entryDx=0;entryDy=0;fontColor=#000000;labelBackgroundColor=none;" parent="1" source="Y6F_x6J40FtZmeI-tIzV-51" target="Y6F_x6J40FtZmeI-tIzV-48" edge="1">
          <mxGeometry relative="1" as="geometry" />
        </mxCell>
        <mxCell id="Y6F_x6J40FtZmeI-tIzV-50" value="" style="edgeStyle=orthogonalEdgeStyle;rounded=0;orthogonalLoop=1;jettySize=auto;html=1;fontColor=#000000;labelBackgroundColor=none;" parent="1" source="Y6F_x6J40FtZmeI-tIzV-51" target="Y6F_x6J40FtZmeI-tIzV-58" edge="1">
          <mxGeometry relative="1" as="geometry" />
        </mxCell>
        <mxCell id="Y6F_x6J40FtZmeI-tIzV-51" value="Do you want to end the Simulation?" style="rhombus;whiteSpace=wrap;html=1;fontColor=#000000;labelBackgroundColor=none;" parent="1" vertex="1">
          <mxGeometry x="1050" y="1535" width="150" height="160" as="geometry" />
        </mxCell>
        <mxCell id="Y6F_x6J40FtZmeI-tIzV-52" value="Without Queen Agent" style="text;html=1;align=center;verticalAlign=middle;whiteSpace=wrap;rounded=0;fontColor=#000000;labelBackgroundColor=none;" parent="1" vertex="1">
          <mxGeometry x="1130" y="890" width="100" height="30" as="geometry" />
        </mxCell>
        <mxCell id="Y6F_x6J40FtZmeI-tIzV-53" value="&lt;span style=&quot;font-family: Helvetica; font-size: 12px; font-style: normal; font-variant-ligatures: normal; font-variant-caps: normal; font-weight: 400; letter-spacing: normal; orphans: 2; text-align: center; text-indent: 0px; text-transform: none; widows: 2; word-spacing: 0px; -webkit-text-stroke-width: 0px; white-space: normal; text-decoration-thickness: initial; text-decoration-style: initial; text-decoration-color: initial; float: none; display: inline !important;&quot;&gt;With Queen Agent&lt;/span&gt;" style="text;whiteSpace=wrap;html=1;fontColor=#000000;labelBackgroundColor=none;" parent="1" vertex="1">
          <mxGeometry x="1350" y="885" width="100" height="40" as="geometry" />
        </mxCell>
        <mxCell id="Y6F_x6J40FtZmeI-tIzV-54" value="" style="html=1;whiteSpace=wrap;shape=isoCube2;backgroundOutline=1;isoAngle=15;fillColor=#CCCCFF;labelBackgroundColor=none;gradientColor=none;fillStyle=dashed;fontColor=#000000;" parent="1" vertex="1">
          <mxGeometry x="1260" y="1280" width="150" height="175" as="geometry" />
        </mxCell>
        <mxCell id="Y6F_x6J40FtZmeI-tIzV-55" value="&lt;font style=&quot;font-size: 24px;&quot;&gt;Ethereum Sepolia Testnet&amp;nbsp;&lt;/font&gt;" style="text;html=1;align=center;verticalAlign=middle;resizable=0;points=[];autosize=1;strokeColor=none;fillColor=none;fontColor=#000000;labelBackgroundColor=none;" parent="1" vertex="1">
          <mxGeometry x="1170" y="1215" width="300" height="40" as="geometry" />
        </mxCell>
        <mxCell id="Y6F_x6J40FtZmeI-tIzV-56" value="Shared Blueprint of the layout accessible to all ants worker or queen()" style="text;html=1;align=center;verticalAlign=middle;whiteSpace=wrap;rounded=0;fontColor=#000000;labelBackgroundColor=none;" parent="1" vertex="1">
          <mxGeometry x="1230" y="1470" width="210" height="40" as="geometry" />
        </mxCell>
        <mxCell id="Y6F_x6J40FtZmeI-tIzV-57" value="Conitnue" style="text;html=1;align=center;verticalAlign=middle;resizable=0;points=[];autosize=1;strokeColor=none;fillColor=none;fontColor=#000000;labelBackgroundColor=none;" parent="1" vertex="1">
          <mxGeometry x="1220" y="1570" width="70" height="30" as="geometry" />
        </mxCell>
        <mxCell id="Y6F_x6J40FtZmeI-tIzV-58" value="The End.&amp;nbsp;" style="whiteSpace=wrap;html=1;fontColor=#000000;labelBackgroundColor=none;" parent="1" vertex="1">
          <mxGeometry x="1050" y="1770" width="150" height="60" as="geometry" />
        </mxCell>
        <mxCell id="Y6F_x6J40FtZmeI-tIzV-59" style="edgeStyle=orthogonalEdgeStyle;rounded=0;orthogonalLoop=1;jettySize=auto;html=1;entryX=0.396;entryY=0.003;entryDx=0;entryDy=0;entryPerimeter=0;fontColor=#000000;labelBackgroundColor=none;" parent="1" source="Y6F_x6J40FtZmeI-tIzV-46" target="Y6F_x6J40FtZmeI-tIzV-48" edge="1">
          <mxGeometry relative="1" as="geometry" />
        </mxCell>
        <mxCell id="Y6F_x6J40FtZmeI-tIzV-60" style="edgeStyle=orthogonalEdgeStyle;rounded=0;orthogonalLoop=1;jettySize=auto;html=1;exitX=0.5;exitY=1;exitDx=0;exitDy=0;fontColor=#000000;labelBackgroundColor=none;" parent="1" source="Y6F_x6J40FtZmeI-tIzV-56" target="Y6F_x6J40FtZmeI-tIzV-56" edge="1">
          <mxGeometry relative="1" as="geometry" />
        </mxCell>
      </root>
    </mxGraphModel>
  </diagram>
</mxfile>
